<svg viewBox="0 0 21 21" fill="none" xmlns="http://www.w3.org/2000/svg">
<path fill-rule="evenodd" clip-rule="evenodd" d="M12.3877 0H8.36942V4.89402L4.76218 1.28678L1.9208 4.12816L5.49531 7.70268H8.15344e-08L0 11.721H5.2215L1.44828 15.4942L4.28967 18.3356L8.36942 14.2558V20.7613H12.3877V14.5951L16.6013 18.8086L19.4427 15.9673L15.1964 11.721H20.7613V7.70268H14.9226L18.9701 3.65512L16.1288 0.813742L12.3877 4.55476V0ZM10.3022 2.72548C10.3022 5.01498 9.06583 9.594 4.1205 9.594C9.06583 9.594 10.3022 14.173 10.3022 16.4625C10.3022 14.173 11.5385 9.594 16.4838 9.594C11.5385 9.594 10.3022 5.01498 10.3022 2.72548Z" fill="white"/>
<path fill-rule="evenodd" clip-rule="evenodd" d="M12.3877 0H8.36942V4.89402L4.76218 1.28678L1.9208 4.12816L5.49531 7.70268H8.15344e-08L0 11.721H5.2215L1.44828 15.4942L4.28967 18.3356L8.36942 14.2558V20.7613H12.3877V14.5951L16.6013 18.8086L19.4427 15.9673L15.1964 11.721H20.7613V7.70268H14.9226L18.9701 3.65512L16.1288 0.813742L12.3877 4.55476V0ZM10.3022 2.72548C10.3022 5.01498 9.06583 9.594 4.1205 9.594C9.06583 9.594 10.3022 14.173 10.3022 16.4625C10.3022 14.173 11.5385 9.594 16.4838 9.594C11.5385 9.594 10.3022 5.01498 10.3022 2.72548Z" fill="url(#paint0_linear_178_7434)"/>
<defs>
<linearGradient id="paint0_linear_178_7434" x1="-1.45523" y1="-17.6568" x2="15.7165" y2="20.7613" gradientUnits="userSpaceOnUse">
<stop stop-color="#4700FF"/>
<stop offset="0.348958" stop-color="#DB69C2" stop-opacity="0.36"/>
<stop offset="0.6875" stop-color="#6130DF"/>
</linearGradient>
</defs>
</svg>
