<?xml version="1.0" standalone="no"?>
<!DOCTYPE svg PUBLIC "-//W3C//DTD SVG 20010904//EN"
 "http://www.w3.org/TR/2001/REC-SVG-20010904/DTD/svg10.dtd">
<svg version="1.0" xmlns="http://www.w3.org/2000/svg"
 width="700.000000pt" height="700.000000pt" viewBox="0 0 700.000000 700.000000"
 preserveAspectRatio="xMidYMid meet">
<metadata>
Created by potrace 1.14, written by Peter Selinger 2001-2017
</metadata>
<g transform="translate(0.000000,700.000000) scale(0.100000,-0.100000)"
fill="#000000" stroke="none">
<path d="M2790 6190 c0 -445 -2 -810 -5 -810 -3 0 -273 268 -601 596 l-597
596 -473 -473 c-260 -260 -472 -474 -471 -476 1 -1 266 -267 590 -591 323
-324 587 -591 587 -593 0 -3 -410 -5 -910 -4 l-910 0 0 -672 0 -673 867 0 868
0 -628 -628 -627 -627 475 -475 475 -475 680 680 680 680 0 -1083 0 -1082 78
-1 c89 0 1193 0 1235 1 l27 0 0 1027 0 1026 702 -702 702 -702 475 475 474
474 -701 702 c-386 385 -702 703 -702 706 0 2 414 4 920 4 l920 0 0 393 c1
876 1 940 -9 946 -5 3 -442 6 -971 5 l-961 0 673 673 c369 370 669 676 665
680 -4 4 -218 218 -475 476 l-467 467 -622 -622 -623 -623 0 758 0 757 -670 0
-670 0 0 -810z m666 -420 c63 -512 267 -1001 558 -1335 318 -364 746 -579
1239 -621 42 -4 77 -11 77 -16 0 -5 -4 -7 -9 -4 -13 8 -221 -19 -328 -43 -428
-96 -806 -339 -1059 -681 -78 -107 -91 -126 -141 -210 -172 -294 -296 -670
-339 -1030 -4 -30 -8 -62 -10 -70 -1 -8 -3 -42 -3 -74 -1 -81 -7 -68 -15 32
-35 464 -220 987 -467 1318 -89 120 -92 124 -183 216 -182 186 -385 321 -628
417 -145 58 -404 116 -541 123 -77 3 -63 15 27 22 266 22 612 139 831 282 323
211 584 534 744 919 19 44 39 94 46 110 77 180 156 546 176 805 l2 35 4 -35
c2 -19 10 -91 19 -160z"/>
</g>
</svg>
