<svg viewBox="0 0 24 24" fill="none" xmlns="http://www.w3.org/2000/svg">
<path fill-rule="evenodd" clip-rule="evenodd" d="M5.5 11.7504C5.5 11.2642 5.89418 10.87 6.38043 10.87L18.1196 10.87C18.6058 10.87 19 11.2642 19 11.7504C19 12.2367 18.6058 12.6309 18.1196 12.6309L6.38043 12.6309C5.89418 12.6309 5.5 12.2367 5.5 11.7504Z" fill="currentColor"/>
<path fill-rule="evenodd" clip-rule="evenodd" d="M11.6275 18.2421C11.2837 17.8983 11.2837 17.3408 11.6275 16.997L16.8745 11.75L11.6275 6.503C11.2837 6.15916 11.2837 5.6017 11.6275 5.25787C11.9713 4.91404 12.5288 4.91404 12.8726 5.25787L18.7422 11.1274C19.086 11.4713 19.086 12.0287 18.7422 12.3726L12.8726 18.2421C12.5288 18.586 11.9713 18.586 11.6275 18.2421Z" fill="currentColor"/>
</svg>
