<svg viewBox="0 0 24 24" fill="none" xmlns="http://www.w3.org/2000/svg">
<path d="M14 11.5298V6.2198C14 5.2898 14.7 4.5498 15.55 4.5498C16.41 4.5498 17.1 5.2998 17.1 6.2198V12.5698" stroke="currentColor" stroke-width="1.5" stroke-linecap="round" stroke-linejoin="round"/>
<path d="M10.9 9.71001V4.42C10.9 3.49 11.6 2.75 12.45 2.75C13.31 2.75 14 3.5 14 4.42V11.17" stroke="currentColor" stroke-width="1.5" stroke-linecap="round" stroke-linejoin="round"/>
<path d="M7.79004 10.5995V7.93953C7.79004 7.01953 8.49004 6.26953 9.34004 6.26953C10.2 6.26953 10.89 7.02953 10.89 7.93953V10.0695" stroke="currentColor" stroke-width="1.5" stroke-linecap="round" stroke-linejoin="round"/>
<path d="M17.1101 12.5699V8.29988C17.1101 7.36988 17.8101 6.62988 18.6601 6.62988C19.5201 6.62988 20.2101 7.37988 20.2101 8.29988V14.5399C20.2101 18.2499 17.4401 21.2399 14.0001 21.2399C13.0901 21.2399 12.2301 21.0299 11.4601 20.6499" stroke="currentColor" stroke-width="1.5" stroke-linecap="round" stroke-linejoin="round"/>
<path d="M3.77002 15.1995L5.52002 13.2695H10.3L12.05 15.1895L7.99002 19.9695L3.77002 15.1995Z" stroke="currentColor" stroke-width="1.5" stroke-linecap="round" stroke-linejoin="round"/>
<path d="M14.01 11.5298V6.2198C14.01 5.2898 14.71 4.5498 15.56 4.5498C16.42 4.5498 17.11 5.2998 17.11 6.2198V12.5698" stroke="currentColor" stroke-width="1.5" stroke-linecap="round" stroke-linejoin="round"/>
<path d="M10.9 9.71001V4.42C10.9 3.49 11.6 2.75 12.45 2.75C13.31 2.75 14 3.5 14 4.42V11.17" stroke="currentColor" stroke-width="1.5" stroke-linecap="round" stroke-linejoin="round"/>
<path d="M7.79004 10.8595V7.93953C7.79004 7.01953 8.49004 6.26953 9.34004 6.26953C10.2 6.26953 10.89 7.02953 10.89 7.93953V10.0695" stroke="currentColor" stroke-width="1.5" stroke-linecap="round" stroke-linejoin="round"/>
<path d="M17.12 12.5699V8.29988C17.12 7.36988 17.82 6.62988 18.67 6.62988C19.53 6.62988 20.22 7.37988 20.22 8.29988V14.5399C20.22 18.2499 17.44 21.2399 14 21.2399C12.8 21.2399 11.68 20.8699 10.73 20.2399" stroke="currentColor" stroke-width="1.5" stroke-linecap="round" stroke-linejoin="round"/>
</svg>
