<svg viewBox="0 0 16 16" fill="none" xmlns="http://www.w3.org/2000/svg">
<path d="M8.07992 1.33398H7.91325C4.28378 1.33398 1.33325 4.28451 1.33325 7.91398V8.08065C1.33325 11.7098 4.27675 14.6606 7.91325 14.6606H8.07992C11.709 14.6606 14.6599 11.7171 14.6599 8.08065V7.91398C14.6599 4.28486 11.7164 1.33398 8.07992 1.33398Z" stroke="currentColor" stroke-linecap="round" stroke-linejoin="round"/>
<path d="M8.66659 5.38891C8.66659 5.49065 8.64767 5.58703 8.60985 5.67806C8.57675 5.76374 8.52947 5.83871 8.468 5.90296C8.41127 5.96722 8.34034 6.01809 8.25524 6.05557C8.17486 6.09306 8.08975 6.1118 7.99992 6.1118C7.81079 6.1118 7.6524 6.04219 7.52474 5.90296C7.39708 5.75839 7.33325 5.58703 7.33325 5.38891C7.33325 5.29252 7.3498 5.20149 7.3829 5.11581C7.41599 5.02478 7.46328 4.94714 7.52474 4.88288C7.58621 4.81863 7.65713 4.76776 7.73751 4.73027C7.81789 4.68743 7.90536 4.66602 7.99992 4.66602C8.08975 4.66602 8.17486 4.68476 8.25524 4.72224C8.34034 4.75972 8.41127 4.81059 8.468 4.87485C8.52947 4.93911 8.57675 5.01675 8.60985 5.10778C8.64767 5.19346 8.66659 5.28717 8.66659 5.38891ZM7.41836 10.666V6.66602H8.58148V10.666H7.41836Z" fill="currentColor"/>
</svg>
