<svg viewBox="0 0 89 24" fill="none" xmlns="http://www.w3.org/2000/svg">
<path fill-rule="evenodd" clip-rule="evenodd" d="M9.55006 0H14.135V5.19807L18.4044 0.928676L21.6465 4.17074L17.0283 8.78895H23.6891V13.3739H17.3392L22.1848 18.2195L18.9427 21.4616L14.135 16.6539V23.6891H9.55006V16.2672L4.89581 20.9214L1.65374 17.6794L5.95918 13.3739H0V8.78895H6.27005L2.192 4.7109L5.43407 1.46883L9.55006 5.58483V0ZM4.7017 10.9464C10.3444 10.9464 11.7551 5.72166 11.7551 3.10929C11.7551 5.72166 13.1658 10.9464 18.8085 10.9464C13.1658 10.9464 11.7551 16.1711 11.7551 18.7835C11.7551 16.1711 10.3444 10.9464 4.7017 10.9464ZM75.6084 6.01208C75.3744 5.78479 75.2574 5.50698 75.2574 5.17866C75.2574 4.85034 75.3744 4.57254 75.6084 4.34524C75.8425 4.10531 76.1285 3.98535 76.4666 3.98535C76.8047 3.98535 77.0907 4.10531 77.3248 4.34524C77.5718 4.57254 77.6954 4.85034 77.6954 5.17866C77.6954 5.50698 77.5718 5.78479 77.3248 6.01208C77.0907 6.23938 76.8047 6.35303 76.4666 6.35303C76.1285 6.35303 75.8425 6.23938 75.6084 6.01208ZM75.4524 7.77363H77.5003V17.4337H75.4524V7.77363ZM34.3159 17.4337V4.17477H38.0217L41.7274 12.4143H42.215L45.9207 4.17477H49.529V17.4337H47.286V8.15246L47.4811 6.35303H47.286L43.6778 14.4031H40.1671L36.5589 6.35303H36.3638L36.5589 8.15246V17.4337H34.3159ZM52.8041 16.2404C51.9199 15.306 51.4778 14.0937 51.4778 12.6037C51.4778 11.1136 51.9199 9.9077 52.8041 8.98588C53.7013 8.05144 54.8195 7.58422 56.1588 7.58422C57.0039 7.58422 57.7776 7.82414 58.4797 8.30399C58.7788 8.50603 59.0453 8.73964 59.2794 9.00482H59.3769V7.77363H61.4248V17.4337H59.3769V16.1079H59.2794C59.0844 16.373 58.8178 16.6256 58.4797 16.8655C57.7776 17.3706 57.0039 17.6232 56.1588 17.6232C54.8195 17.6232 53.7013 17.1623 52.8041 16.2404ZM54.4034 10.2171C53.8833 10.7727 53.6233 11.5682 53.6233 12.6037C53.6233 13.6392 53.8833 14.4347 54.4034 14.9903C54.9235 15.5459 55.6387 15.8237 56.5488 15.8237C57.407 15.8237 58.0897 15.5459 58.5968 14.9903C59.1169 14.4221 59.3769 13.6265 59.3769 12.6037C59.3769 11.5809 59.1169 10.7916 58.5968 10.236C58.0897 9.66777 57.407 9.38365 56.5488 9.38365C55.6387 9.38365 54.9235 9.66146 54.4034 10.2171ZM63.1726 12.6037C63.1726 14.0937 63.6146 15.306 64.4988 16.2404C65.396 17.1623 66.5142 17.6232 67.8535 17.6232C68.7117 17.6232 69.4853 17.3896 70.1745 16.9223C70.4865 16.7077 70.7531 16.4677 70.9741 16.2026H71.0716V19.2332H64.6353V21.0326H73.1196V7.77363H71.0716V9.02376H70.9741C70.7531 8.75858 70.4865 8.51866 70.1745 8.30399C69.4723 7.82414 68.6987 7.58422 67.8535 7.58422C66.5142 7.58422 65.396 8.05144 64.4988 8.98588C63.6146 9.9077 63.1726 11.1136 63.1726 12.6037ZM65.318 12.6037C65.318 11.5682 65.578 10.7727 66.0981 10.2171C66.6182 9.66146 67.3334 9.38365 68.2436 9.38365C69.1017 9.38365 69.7844 9.66777 70.2915 10.236C70.8116 10.7916 71.0716 11.5809 71.0716 12.6037C71.0716 13.6265 70.8116 14.4221 70.2915 14.9903C69.7844 15.5459 69.1017 15.8237 68.2436 15.8237C67.3334 15.8237 66.6182 15.5459 66.0981 14.9903C65.578 14.4347 65.318 13.6392 65.318 12.6037ZM79.8332 4.17477V17.4337H81.8811V13.3613H83.4414L86.4645 17.4337H89L85.0992 12.2249L88.7074 7.77363H86.367L83.3439 11.5619H81.8811V4.17477H79.8332Z" fill="currentColor"/>
</svg>
