<svg viewBox="0 0 24 24" fill="none" xmlns="http://www.w3.org/2000/svg">
<path d="M12 24C18.65 24 24 18.65 24 12C24 5.34996 18.65 0 12 0C5.34996 0 0 5.34996 0 12C0 18.65 5.34996 24 12 24Z" fill="#6231DF"/>
<path fill-rule="evenodd" clip-rule="evenodd" d="M13.5473 4H10.4505V7.77234L7.67025 4.9921L5.4805 7.18185L8.23494 9.93629H4V13.0331H8.02419L5.11693 15.9403L7.30668 18.1301L10.4505 14.9863V20H13.5473V15.2486L16.7942 18.4956L18.984 16.3058L15.7112 13.0331H20V9.93629H15.5005L18.6204 6.81636L16.4306 4.62661L13.5473 7.50998V4ZM11.9396 6.10013C11.9396 7.86456 10.9868 11.3934 7.17558 11.3934C10.9868 11.3934 11.9396 14.9223 11.9396 16.6868C11.9396 14.9223 12.8924 11.3934 16.7036 11.3934C12.8924 11.3934 11.9396 7.86456 11.9396 6.10013Z" fill="white"/>
</svg>
