<svg viewBox="0 0 24 24" fill="none" xmlns="http://www.w3.org/2000/svg">
<path d="M21.27 6.85023V2.74023" stroke="white" stroke-width="1.5" stroke-linecap="round" stroke-linejoin="round"/>
<path d="M9.98004 21.2301C13.951 21.2301 17.17 18.0065 17.17 14.0301C17.17 10.0536 13.951 6.83008 9.98004 6.83008C6.00911 6.83008 2.79004 10.0536 2.79004 14.0301C2.79004 18.0065 6.00911 21.2301 9.98004 21.2301Z" stroke="white" stroke-width="1.5" stroke-linecap="round" stroke-linejoin="round"/>
<path d="M21.28 2.73047L17.17 6.85047" stroke="white" stroke-width="1.5" stroke-linecap="round" stroke-linejoin="round"/>
<path d="M17.17 2.74023H21.27" stroke="white" stroke-width="1.5" stroke-linecap="round" stroke-linejoin="round"/>
<path d="M10.53 13.5304V12.6104L11.22 12.8804C11.29 12.9004 11.35 12.9204 11.42 12.9204C11.6 12.9204 11.77 12.8304 11.88 12.6804C12.03 12.4704 12.01 12.1904 11.84 12.0004C11.54 11.6504 11.07 11.4004 10.53 11.3004V11.2504C10.53 10.9404 10.28 10.6904 9.97 10.6904C9.66 10.6904 9.41 10.9404 9.41 11.2504V11.3104C8.44 11.4904 7.73999 12.1304 7.73999 12.9204C7.73999 13.7104 8.44 14.3504 9.41 14.5304V15.4504L8.72 15.1804C8.48 15.0904 8.21001 15.1704 8.07001 15.3804C7.92001 15.5904 7.93999 15.8704 8.10999 16.0604C8.40999 16.4104 8.88001 16.6604 9.42001 16.7604V16.8104C9.42001 17.1204 9.67001 17.3704 9.98001 17.3704C10.29 17.3704 10.54 17.1204 10.54 16.8104V16.7504C11.51 16.5704 12.21 15.9304 12.21 15.1404C12.21 14.3504 11.5 13.7104 10.53 13.5304ZM9.42001 13.3804C9.07001 13.2704 8.85999 13.0704 8.85999 12.9104C8.85999 12.7504 9.07001 12.5504 9.42001 12.4404V13.3804ZM10.53 15.6104V14.6704C10.88 14.7804 11.09 14.9804 11.09 15.1404C11.09 15.3004 10.88 15.5004 10.53 15.6104Z" fill="currentColor"/>
</svg>
