<svg viewBox="0 0 24 24" fill="none" xmlns="http://www.w3.org/2000/svg">
<path d="M12 24C18.65 24 24 18.65 24 12C24 5.34996 18.65 0 12 0C5.34996 0 0 5.34996 0 12C0 18.65 5.34996 24 12 24Z" fill="#2775CA"/>
<path d="M15.3001 13.8996C15.3001 12.1497 14.2501 11.5497 12.1501 11.2997C10.6501 11.0997 10.3501 10.6997 10.3501 9.99962C10.3501 9.29954 10.8501 8.84966 11.8501 8.84966C12.7501 8.84966 13.2501 9.14966 13.5001 9.89966C13.5501 10.0497 13.7001 10.1496 13.8501 10.1496H14.65C14.8501 10.1496 15.0001 9.99962 15.0001 9.7997V9.74966C14.8 8.64962 13.9 7.79965 12.7501 7.69969V6.49969C12.7501 6.29965 12.6001 6.14965 12.3501 6.09961H11.6001C11.4001 6.09961 11.2501 6.24961 11.2 6.49969V7.64965C9.70002 7.84969 8.7501 8.84966 8.7501 10.0997C8.7501 11.7497 9.75006 12.3996 11.8501 12.6497C13.2501 12.8997 13.7001 13.1997 13.7001 13.9997C13.7001 14.7998 13 15.3497 12.0501 15.3497C10.75 15.3497 10.3 14.7996 10.15 14.0496C10.1001 13.8497 9.9501 13.7496 9.8001 13.7496H8.95002C8.7501 13.7496 8.6001 13.8996 8.6001 14.0997V14.1497C8.80002 15.3996 9.60006 16.2996 11.2501 16.5497V17.7497C11.2501 17.9496 11.4001 18.0996 11.65 18.1497H12.4C12.6001 18.1497 12.7501 17.9997 12.8001 17.7497V16.5497C14.3001 16.2996 15.3001 15.2496 15.3001 13.8996Z" fill="white"/>
<path d="M9.45001 19.15C5.55 17.7501 3.54996 13.4001 5.00004 9.54995C5.75005 7.44994 7.40005 5.84997 9.45001 5.09997C9.65005 5.00001 9.75002 4.85001 9.75002 4.59993V3.89996C9.75002 3.69992 9.65005 3.54992 9.45001 3.5C9.39997 3.5 9.30001 3.5 9.24997 3.54992C4.5 5.04993 1.89996 10.1 3.39996 14.85C4.29996 17.65 6.45001 19.8 9.24997 20.7001C9.45001 20.8 9.65005 20.7001 9.69998 20.5C9.75002 20.4501 9.75002 20.4 9.75002 20.3001V19.6C9.75002 19.45 9.60001 19.2501 9.45001 19.15ZM14.7501 3.54992C14.55 3.44996 14.35 3.54992 14.3001 3.74996C14.25 3.8 14.25 3.84992 14.25 3.95V4.64997C14.25 4.85001 14.4 5.04993 14.55 5.15001C18.45 6.54994 20.4501 10.9 19 14.7501C18.25 16.8501 16.6 18.45 14.55 19.2C14.35 19.3 14.25 19.45 14.25 19.7001V20.4C14.25 20.6001 14.35 20.7501 14.55 20.8C14.6001 20.8 14.7 20.8 14.7501 20.7501C19.5 19.2501 22.1001 14.2 20.6001 9.44999C19.7001 6.59998 17.5 4.44992 14.7501 3.54992Z" fill="white"/>
</svg>
