<svg viewBox="0 0 12 11" fill="none" xmlns="http://www.w3.org/2000/svg">
<path fill-rule="evenodd" clip-rule="evenodd" d="M1.3747 1.26247H4.19009H5.69089H7.2696C7.876 1.26247 8.43337 1.69064 8.61025 2.31738H5.71189C5.70493 2.31708 5.69793 2.31693 5.69089 2.31693H1.3747C1.14871 2.31693 0.900457 2.11722 0.900457 1.7897C0.900457 1.46218 1.14871 1.26247 1.3747 1.26247ZM7.2696 0.412109H5.69089H4.19009H1.3747C0.580162 0.412109 0 1.06277 0 1.7897C0 1.83791 0.00255208 1.88579 0.00754951 1.93317C0.00259158 1.95844 0 1.98449 0 2.01112V2.74256V4.82866V8.42299C0 9.59414 1.00696 10.5376 2.23911 10.5376H9.76085C11.001 10.5376 12 9.58662 12 8.42299V4.43888C12.0067 3.26769 11 2.31738 9.76686 2.31738H9.52993C9.3348 1.25865 8.42424 0.412109 7.2696 0.412109ZM0.900448 3.16775V8.42299C0.900448 9.12264 1.50229 9.6872 2.23911 9.6872H9.76085C10.5017 9.6872 11.0995 9.11883 11.0995 8.42299V4.43762L11.0995 4.43505C11.104 3.73604 10.5022 3.16775 9.76686 3.16775H0.900448ZM9.57473 6.4272C9.57473 6.50234 9.51023 6.56326 9.43066 6.56326C9.3511 6.56326 9.2866 6.50234 9.2866 6.4272C9.2866 6.35206 9.3511 6.29114 9.43066 6.29114C9.51023 6.29114 9.57473 6.35206 9.57473 6.4272ZM9.43066 5.71289C9.01294 5.71289 8.67432 6.0327 8.67432 6.4272C8.67432 6.82169 9.01294 7.14151 9.43066 7.14151C9.84838 7.14151 10.187 6.8217 10.187 6.4272C10.187 6.0327 9.84838 5.71289 9.43066 5.71289Z" fill="currentColor"/>
</svg>
